<?xml version="1.0" standalone="no"?>
<!DOCTYPE svg PUBLIC "-//W3C//DTD SVG 20010904//EN"
 "http://www.w3.org/TR/2001/REC-SVG-20010904/DTD/svg10.dtd">
<svg version="1.0" xmlns="http://www.w3.org/2000/svg"
 width="700.000000pt" height="700.000000pt" viewBox="0 0 700.000000 700.000000"
 preserveAspectRatio="xMidYMid meet">
<metadata>
Created by potrace 1.11, written by Peter Selinger 2001-2013
</metadata>
<g transform="translate(0.000000,700.000000) scale(0.100000,-0.100000)"
fill="#000000" stroke="none">
<path d="M3268 6795 c-157 -30 -280 -94 -363 -188 -88 -100 -143 -253 -184
-507 -79 -493 -93 -556 -157 -741 -150 -435 -488 -773 -923 -923 -185 -64
-248 -78 -741 -157 -431 -69 -600 -190 -682 -486 -19 -69 -22 -103 -22 -293 0
-190 3 -224 22 -293 34 -122 78 -203 152 -277 107 -107 252 -164 530 -209 493
-79 556 -93 741 -157 435 -150 773 -488 923 -923 64 -185 78 -248 157 -741 69
-431 190 -600 486 -682 69 -19 103 -22 293 -22 190 0 224 3 293 22 122 34 203
78 277 152 107 107 164 252 209 530 79 493 93 556 157 741 150 435 488 773
923 923 185 64 248 78 741 157 431 69 600 190 682 486 19 69 22 103 22 293 0
190 -3 224 -22 293 -34 122 -78 203 -152 277 -107 107 -252 164 -530 209 -493
79 -556 93 -741 157 -435 150 -773 488 -923 923 -64 185 -78 248 -157 741 -69
431 -192 602 -486 681 -103 28 -407 36 -525 14z m269 -267 c46 -52 323 -473
323 -492 0 -45 -14 -51 -125 -54 l-105 -4 0 -173 c0 -95 -3 -180 -6 -189 -5
-13 -26 -16 -124 -16 -98 0 -119 3 -124 16 -3 9 -6 94 -6 190 l0 174 -89 0
c-49 0 -101 4 -115 10 -50 19 -37 51 125 291 166 245 184 269 209 269 9 0 26
-10 37 -22z m-20 -2678 c285 -161 526 -299 536 -308 9 -8 17 -23 17 -32 0 -9
-8 -24 -17 -32 -16 -14 -983 -587 -1041 -617 -27 -15 -59 -6 -66 17 -3 9 -8
292 -12 627 -6 578 -6 612 11 629 10 10 26 15 36 13 9 -3 250 -136 536 -297z
m-2539 -3 c6 -7 13 -58 14 -113 l3 -99 190 -6 c105 -3 191 -6 193 -7 1 -1 2
-56 2 -122 0 -66 -1 -121 -2 -122 -2 -1 -88 -4 -193 -7 l-190 -6 -3 -99 c-3
-105 -11 -126 -46 -126 -27 0 -504 319 -512 342 -3 10 -3 26 0 36 8 23 484
342 512 342 12 0 26 -6 32 -13z m5296 -152 c257 -173 268 -184 234 -227 -24
-29 -481 -328 -502 -328 -39 0 -46 18 -46 127 l0 103 -179 0 c-99 0 -186 3
-195 6 -24 9 -24 239 0 248 9 3 96 6 195 6 l179 0 0 103 c0 109 7 127 46 127
12 0 132 -74 268 -165z m-2663 -2305 c18 -10 19 -23 19 -195 l0 -185 96 0
c109 0 134 -9 134 -48 0 -29 -310 -497 -342 -516 -13 -8 -23 -8 -35 0 -33 19
-343 487 -343 516 0 39 25 48 134 48 l96 0 0 185 c0 165 2 185 18 194 22 14
198 14 223 1z"/>
</g>
</svg>
